<svg xmlns="http://www.w3.org/2000/svg" viewBox="0 0 16 16">
  <path d="M 8 14.5 C 8.2 14.5 8.8 14.3 9.5 13 C 9.8 12.4 10 11.8 10.2 11 H 5.8 C 6 11.8 6.2 12.4 6.5 13 C 7.2 14.3 7.8 14.5 8 14.5 Z M 5.6 9.5 C 5.5 9 5.5 8.5 5.5 8 C 5.5 7.5 5.5 7 5.6 6.5 H 10.4 C 10.5 7 10.5 7.5 10.5 8 C 10.5 8.5 10.5 9 10.4 9.5 H 5.6 Z M 11.7 11 C 11.5 12.1 11.1 13.1 10.7 13.9 C 12 13.3 13.1 12.3 13.8 11 H 11.7 Z M 14.3 9.5 H 11.9 C 12 9 12 8.5 12 8 C 12 7.5 12 7 11.9 6.5 H 14.3 C 14.4 7 14.5 7.5 14.5 8 C 14.5 8.5 14.4 9 14.3 9.5 Z M 4.1 9.5 H 1.7 C 1.6 9 1.5 8.5 1.5 8 c 0 -0.5 0.1 -1 0.2 -1.5 h 2.4 C 4 7 4 7.5 4 8 c 0 0 0 1 0 1.5 M 2.2 11 H 4.3 C 4.5 12.1 4.9 13.1 5.3 13.9 C 4 13.3 2.9 12.3 2.2 11 M 5.8 5 H 10.2 C 10 4.2 9.8 3.6 9.5 3 C 8.8 1.7 8.2 1.5 8 1.5 C 7.8 1.5 7.2 1.7 6.5 3 C 6.2 3.6 6 4.2 5.8 5 Z M 11.7 5 H 13.8 C 13.1 3.7 12 2.7 10.7 2.1 C 11.1 2.9 11.5 3.9 11.7 5 Z M 5.3 2.1 C 4.9 2.9 4.5 3.9 4.3 5 H 2.2 C 2.9 3.7 4 2.7 5.3 2.1 Z M 8 0 C 12.4 0 16 3.6 16 8 C 16 12.4 12.4 16 8 16 C 3.6 16 0 12.4 0 8 C 0 3.6 3.6 0 8 0 Z A 1 1 0 0 0 8 16 A 1 1 0 0 0 8 0" stroke="#FFF" stroke-width="0.5" fill="#fff"/>
</svg>